<svg xmlns="http://www.w3.org/2000/svg" xmlns:xlink="http://www.w3.org/1999/xlink" width="500" zoomAndPan="magnify" viewBox="0 0 375 374.999991" height="500" preserveAspectRatio="xMidYMid meet" version="1.0"><defs><g/><clipPath id="4f2499a561"><path d="M 80.078125 128.050781 L 206.828125 128.050781 L 206.828125 215.050781 L 80.078125 215.050781 Z M 80.078125 128.050781 " clip-rule="nonzero"/></clipPath></defs><g clip-path="url(#4f2499a561)"><path fill="#ff9202" d="M 352.902344 210.457031 C 354.257812 210.457031 355.359375 211.558594 355.359375 212.914062 C 355.359375 214.273438 354.257812 215.375 352.902344 215.375 L 100.464844 215.375 C 98.035156 215.375 95.824219 214.378906 94.226562 212.78125 C 92.628906 211.183594 91.632812 208.972656 91.632812 206.542969 L 91.632812 175.488281 L 87.253906 175.488281 C 85.542969 175.488281 84.132812 175.039062 83.035156 174.292969 C 81.816406 173.472656 81.011719 172.308594 80.605469 170.984375 L 80.601562 170.988281 C 80.226562 169.761719 80.214844 168.40625 80.554688 167.097656 C 80.953125 165.53125 81.859375 164.003906 83.230469 162.820312 L 120.867188 130.378906 C 122.667969 128.824219 125.003906 128.050781 127.316406 128.050781 C 129.625 128.050781 131.960938 128.824219 133.761719 130.378906 L 159.054688 152.253906 C 160.078125 153.140625 160.191406 154.6875 159.304688 155.710938 C 158.421875 156.734375 156.871094 156.847656 155.847656 155.960938 L 130.554688 134.085938 C 129.691406 133.339844 128.515625 132.96875 127.316406 132.96875 C 126.117188 132.96875 124.9375 133.339844 124.074219 134.085938 L 86.4375 166.53125 C 85.84375 167.039062 85.460938 167.671875 85.296875 168.304688 C 85.183594 168.75 85.179688 169.179688 85.289062 169.546875 L 85.289062 169.554688 C 85.371094 169.820312 85.535156 170.054688 85.78125 170.222656 C 86.101562 170.4375 86.585938 170.570312 87.253906 170.570312 L 94.09375 170.570312 C 95.449219 170.570312 96.550781 171.671875 96.550781 173.027344 L 96.550781 206.542969 C 96.550781 207.617188 96.992188 208.597656 97.703125 209.304688 C 98.414062 210.015625 99.390625 210.457031 100.464844 210.457031 Z M 352.902344 210.457031 " fill-opacity="1" fill-rule="nonzero"/></g><g fill="#ffffff" fill-opacity="1"><g transform="translate(108.727416, 198.871701)"><g><path d="M 15.234375 -5.265625 L 16.671875 -1.15625 C 16.078125 -0.664062 15.320312 -0.28125 14.40625 0 C 13.5 0.28125 12.472656 0.421875 11.328125 0.421875 C 8.941406 0.421875 7.128906 -0.226562 5.890625 -1.53125 C 4.648438 -2.832031 4.03125 -4.722656 4.03125 -7.203125 L 4.03125 -17.703125 L 0.65625 -17.703125 L 0.65625 -22.109375 L 4.03125 -22.109375 L 4.03125 -26.40625 L 9.5625 -27.3125 L 9.5625 -22.109375 L 15.828125 -22.109375 L 15.828125 -17.703125 L 9.5625 -17.703125 L 9.5625 -7.609375 C 9.5625 -6.515625 9.789062 -5.71875 10.25 -5.21875 C 10.707031 -4.71875 11.367188 -4.46875 12.234375 -4.46875 C 13.222656 -4.46875 14.082031 -4.734375 14.8125 -5.265625 Z M 15.234375 -5.265625 "/></g></g></g><g fill="#ffffff" fill-opacity="1"><g transform="translate(123.953886, 198.871701)"><g/></g></g><g fill="#ffffff" fill-opacity="1"><g transform="translate(131.694479, 198.871701)"><g><path d="M 3.1875 0 L 3.1875 -22.078125 L 8.5625 -22.078125 L 8.5625 -18.796875 L 8.984375 -18.71875 C 9.523438 -19.945312 10.226562 -20.847656 11.09375 -21.421875 C 11.957031 -21.992188 13.007812 -22.28125 14.25 -22.28125 C 15.507812 -22.28125 16.460938 -22.066406 17.109375 -21.640625 L 16.171875 -16.859375 L 15.75 -16.78125 C 15.394531 -16.925781 15.050781 -17.03125 14.71875 -17.09375 C 14.382812 -17.164062 13.976562 -17.203125 13.5 -17.203125 C 11.945312 -17.203125 10.765625 -16.65625 9.953125 -15.5625 C 9.140625 -14.476562 8.734375 -12.734375 8.734375 -10.328125 L 8.734375 0 Z M 3.1875 0 "/></g></g></g><g fill="#ffffff" fill-opacity="1"><g transform="translate(147.081074, 198.871701)"><g/></g></g><g fill="#ffffff" fill-opacity="1"><g transform="translate(154.821668, 198.871701)"><g><path d="M 12.828125 0.421875 C 10.671875 0.421875 8.773438 -0.0195312 7.140625 -0.90625 C 5.503906 -1.800781 4.234375 -3.101562 3.328125 -4.8125 C 2.429688 -6.53125 1.984375 -8.601562 1.984375 -11.03125 C 1.984375 -13.457031 2.429688 -15.53125 3.328125 -17.25 C 4.234375 -18.976562 5.503906 -20.285156 7.140625 -21.171875 C 8.773438 -22.054688 10.671875 -22.5 12.828125 -22.5 C 14.992188 -22.5 16.894531 -22.054688 18.53125 -21.171875 C 20.164062 -20.285156 21.4375 -18.976562 22.34375 -17.25 C 23.25 -15.53125 23.703125 -13.457031 23.703125 -11.03125 C 23.703125 -8.601562 23.25 -6.53125 22.34375 -4.8125 C 21.4375 -3.101562 20.164062 -1.800781 18.53125 -0.90625 C 16.894531 -0.0195312 14.992188 0.421875 12.828125 0.421875 Z M 12.828125 -4.28125 C 16.265625 -4.28125 17.984375 -6.53125 17.984375 -11.03125 C 17.984375 -13.363281 17.539062 -15.070312 16.65625 -16.15625 C 15.769531 -17.25 14.492188 -17.796875 12.828125 -17.796875 C 9.398438 -17.796875 7.6875 -15.539062 7.6875 -11.03125 C 7.6875 -6.53125 9.398438 -4.28125 12.828125 -4.28125 Z M 12.828125 -4.28125 "/></g></g></g><g fill="#ffffff" fill-opacity="1"><g transform="translate(178.554819, 198.871701)"><g/></g></g><g fill="#ffffff" fill-opacity="1"><g transform="translate(186.295413, 198.871701)"><g><path d="M 15.1875 0 L 8.59375 0 L 0.421875 -22.078125 L 6.21875 -22.078125 L 11.71875 -6.34375 L 12.171875 -6.34375 L 17.671875 -22.078125 L 23.34375 -22.078125 Z M 15.1875 0 "/></g></g></g><g fill="#ffffff" fill-opacity="1"><g transform="translate(208.107055, 198.871701)"><g/></g></g><g fill="#ffffff" fill-opacity="1"><g transform="translate(215.847644, 198.871701)"><g><path d="M 3.1875 0 L 3.1875 -22.078125 L 8.515625 -22.078125 L 8.515625 -18.84375 L 8.921875 -18.734375 C 10.296875 -21.242188 12.523438 -22.5 15.609375 -22.5 C 18.160156 -22.5 20.03125 -21.804688 21.21875 -20.421875 C 22.414062 -19.035156 23.015625 -17.015625 23.015625 -14.359375 L 23.015625 0 L 17.484375 0 L 17.484375 -13.671875 C 17.484375 -15.140625 17.1875 -16.195312 16.59375 -16.84375 C 16.007812 -17.488281 15.070312 -17.8125 13.78125 -17.8125 C 12.1875 -17.8125 10.945312 -17.296875 10.0625 -16.265625 C 9.175781 -15.242188 8.734375 -13.632812 8.734375 -11.4375 L 8.734375 0 Z M 3.1875 0 "/></g></g></g><g fill="#ffffff" fill-opacity="1"><g transform="translate(214.49999, 214.960723)"><g><path d="M 5.421875 -5.0625 C 5.421875 -4.488281 5.296875 -4.03125 5.046875 -3.6875 C 4.804688 -3.351562 4.445312 -3.125 3.96875 -3 L 5.71875 0 L 4.078125 0 L 2.40625 -2.875 L 2.015625 -2.875 L 2.015625 0 L 0.59375 0 L 0.59375 -7.078125 L 3 -7.078125 C 3.800781 -7.078125 4.40625 -6.898438 4.8125 -6.546875 C 5.21875 -6.191406 5.421875 -5.695312 5.421875 -5.0625 Z M 2.015625 -5.875 L 2.015625 -4.078125 L 3 -4.078125 C 3.34375 -4.078125 3.59375 -4.144531 3.75 -4.28125 C 3.914062 -4.414062 4 -4.664062 4 -5.03125 C 4 -5.28125 3.914062 -5.484375 3.75 -5.640625 C 3.59375 -5.796875 3.34375 -5.875 3 -5.875 Z M 2.015625 -5.875 "/></g></g></g><g fill="#ffffff" fill-opacity="1"><g transform="translate(222.370686, 214.960723)"><g><path d="M 2.015625 -2.9375 L 2.015625 -1.203125 L 5.296875 -1.203125 L 5.296875 0 L 0.59375 0 L 0.59375 -7.078125 L 5.203125 -7.078125 L 5.203125 -5.875 L 2.015625 -5.875 L 2.015625 -4.140625 L 5.046875 -4.140625 L 5.046875 -2.9375 Z M 2.015625 -2.9375 "/></g></g></g><g fill="#ffffff" fill-opacity="1"><g transform="translate(230.049453, 214.960723)"><g><path d="M 4.78125 -1.53125 L 2.25 -1.53125 L 1.703125 0 L 0.171875 0 L 2.765625 -7.078125 L 4.28125 -7.078125 L 6.859375 0 L 5.328125 0 Z M 2.703125 -2.734375 L 4.3125 -2.734375 L 3.515625 -5.015625 Z M 2.703125 -2.734375 "/></g></g></g><g fill="#ffffff" fill-opacity="1"><g transform="translate(239.061628, 214.960723)"><g><path d="M 2.015625 -1.203125 L 4.90625 -1.203125 L 4.90625 0 L 0.59375 0 L 0.59375 -7.078125 L 2.015625 -7.078125 Z M 2.015625 -1.203125 "/></g></g></g><g fill="#ffffff" fill-opacity="1"><g transform="translate(246.336327, 214.960723)"><g/></g></g><g fill="#ffffff" fill-opacity="1"><g transform="translate(251.449295, 214.960723)"><g><path d="M 2.015625 -2.9375 L 2.015625 -1.203125 L 5.296875 -1.203125 L 5.296875 0 L 0.59375 0 L 0.59375 -7.078125 L 5.203125 -7.078125 L 5.203125 -5.875 L 2.015625 -5.875 L 2.015625 -4.140625 L 5.046875 -4.140625 L 5.046875 -2.9375 Z M 2.015625 -2.9375 "/></g></g></g><g fill="#ffffff" fill-opacity="1"><g transform="translate(259.128063, 214.960723)"><g><path d="M 5.65625 -2.0625 C 5.65625 -1.65625 5.585938 -1.3125 5.453125 -1.03125 C 5.316406 -0.75 5.125 -0.523438 4.875 -0.359375 C 4.632812 -0.191406 4.351562 -0.0703125 4.03125 0 C 3.707031 0.0625 3.363281 0.09375 3 0.09375 C 2.5 0.09375 2.023438 0.03125 1.578125 -0.09375 C 1.128906 -0.226562 0.734375 -0.394531 0.390625 -0.59375 L 0.953125 -1.734375 C 1.140625 -1.609375 1.3125 -1.503906 1.46875 -1.421875 C 1.625 -1.335938 1.78125 -1.269531 1.9375 -1.21875 C 2.101562 -1.175781 2.269531 -1.144531 2.4375 -1.125 C 2.601562 -1.113281 2.789062 -1.109375 3 -1.109375 C 3.351562 -1.109375 3.644531 -1.171875 3.875 -1.296875 C 4.113281 -1.429688 4.234375 -1.671875 4.234375 -2.015625 C 4.234375 -2.210938 4.179688 -2.363281 4.078125 -2.46875 C 3.972656 -2.582031 3.832031 -2.671875 3.65625 -2.734375 C 3.488281 -2.804688 3.296875 -2.867188 3.078125 -2.921875 C 2.859375 -2.972656 2.632812 -3.023438 2.40625 -3.078125 C 2.175781 -3.140625 1.953125 -3.21875 1.734375 -3.3125 C 1.515625 -3.40625 1.316406 -3.535156 1.140625 -3.703125 C 0.972656 -3.867188 0.835938 -4.078125 0.734375 -4.328125 C 0.628906 -4.585938 0.578125 -4.90625 0.578125 -5.28125 C 0.578125 -5.601562 0.640625 -5.882812 0.765625 -6.125 C 0.890625 -6.363281 1.0625 -6.5625 1.28125 -6.71875 C 1.507812 -6.875 1.773438 -6.988281 2.078125 -7.0625 C 2.378906 -7.132812 2.703125 -7.171875 3.046875 -7.171875 C 3.546875 -7.171875 4 -7.117188 4.40625 -7.015625 C 4.8125 -6.910156 5.175781 -6.78125 5.5 -6.625 L 5.03125 -5.484375 C 4.78125 -5.617188 4.488281 -5.734375 4.15625 -5.828125 C 3.832031 -5.921875 3.460938 -5.96875 3.046875 -5.96875 C 2.742188 -5.96875 2.492188 -5.910156 2.296875 -5.796875 C 2.097656 -5.679688 2 -5.507812 2 -5.28125 C 2 -5 2.085938 -4.785156 2.265625 -4.640625 C 2.453125 -4.503906 2.679688 -4.398438 2.953125 -4.328125 C 3.222656 -4.253906 3.515625 -4.1875 3.828125 -4.125 C 4.148438 -4.0625 4.441406 -3.957031 4.703125 -3.8125 C 4.972656 -3.664062 5.195312 -3.457031 5.375 -3.1875 C 5.5625 -2.925781 5.65625 -2.550781 5.65625 -2.0625 Z M 5.65625 -2.0625 "/></g></g></g><g fill="#ffffff" fill-opacity="1"><g transform="translate(267.200791, 214.960723)"><g><path d="M 3.6875 -5.875 L 3.6875 0 L 2.25 0 L 2.25 -5.875 L 0.359375 -5.875 L 0.359375 -7.078125 L 5.5625 -7.078125 L 5.5625 -5.875 Z M 3.6875 -5.875 "/></g></g></g><g fill="#ffffff" fill-opacity="1"><g transform="translate(275.12199, 214.960723)"><g><path d="M 4.78125 -1.53125 L 2.25 -1.53125 L 1.703125 0 L 0.171875 0 L 2.765625 -7.078125 L 4.28125 -7.078125 L 6.859375 0 L 5.328125 0 Z M 2.703125 -2.734375 L 4.3125 -2.734375 L 3.515625 -5.015625 Z M 2.703125 -2.734375 "/></g></g></g><g fill="#ffffff" fill-opacity="1"><g transform="translate(284.134166, 214.960723)"><g><path d="M 3.6875 -5.875 L 3.6875 0 L 2.25 0 L 2.25 -5.875 L 0.359375 -5.875 L 0.359375 -7.078125 L 5.5625 -7.078125 L 5.5625 -5.875 Z M 3.6875 -5.875 "/></g></g></g><g fill="#ffffff" fill-opacity="1"><g transform="translate(292.055365, 214.960723)"><g><path d="M 2.015625 -2.9375 L 2.015625 -1.203125 L 5.296875 -1.203125 L 5.296875 0 L 0.59375 0 L 0.59375 -7.078125 L 5.203125 -7.078125 L 5.203125 -5.875 L 2.015625 -5.875 L 2.015625 -4.140625 L 5.046875 -4.140625 L 5.046875 -2.9375 Z M 2.015625 -2.9375 "/></g></g></g></svg>